<?xml version="1.0" encoding="UTF-8"?>
<svg width="593px" height="809px" viewBox="0 0 593 809" version="1.1" xmlns="http://www.w3.org/2000/svg" xmlns:xlink="http://www.w3.org/1999/xlink">
    <title>Combined Shape 2</title>
    <defs>
        <linearGradient x1="41.0247668%" y1="-6.88930229%" x2="59.2347597%" y2="80.4606757%" id="linearGradient-1">
            <stop stop-color="#FEB502" offset="0%"></stop>
            <stop stop-color="#E3AA1B" offset="100%"></stop>
        </linearGradient>
        <path d="M426.036853,30.022742 L444.60133,39.8103201 C535.265196,91.7655662 593,188.221645 593,295 C593,412.203322 523.434002,516.779524 417.644725,563.871206 C379.861492,580.690264 338.786814,589.5 296.5,589.5 C132.779077,589.5 0,457.679617 0,295 C0,132.320383 132.779077,0.5 296.5,0.5 C341.966097,0.5 386.012395,10.6859249 426.036853,30.022742 Z M39,295 C39,436.076995 154.255172,550.5 296.5,550.5 C333.297169,550.5 368.970898,542.848664 401.784452,528.241839 C493.651908,487.347402 554,396.628165 554,295 C554,196.237617 497.020476,107.629708 409.071206,65.1392173 L395.876694,59.2159121 C364.727679,46.2723722 331.115443,39.5 296.5,39.5 C154.255172,39.5 39,153.923005 39,295 Z M188.521371,545.972081 L36.7435327,808.54538 L2.97862895,789.027919 L154.756467,526.45462 Z" id="path-2"></path>
    </defs>
    <g id="Page-1" stroke="none" stroke-width="1" fill="none" fill-rule="evenodd">
        <g id="Combined-Shape-2" fill-rule="nonzero">
            <use fill="url(#linearGradient-1)" xlink:href="#path-2"></use>
        </g>
    </g>
</svg>
